<?xml version="1.0" encoding="UTF-8"?><svg id="Layer_2" xmlns="http://www.w3.org/2000/svg" viewBox="0 0 308.91 160.23"><defs><style>.cls-1{fill:#90905a;stroke-width:0px;}</style></defs><g id="Layer_1-2"><path class="cls-1" d="m26.51,28.59c-2.97,4.22-9.23,3.12-12.11,11.06-.58,1.52-.41,3.17.54,4.72,1.91,3.1,8.21,7.01,11.68,9.9,1.21,1.14,2.71,2.2,4.14,3.16,4.7,3.8,9.44,7.92,12.3,12.57,2.14,3.48,3.08,7.19,2.33,10.91-.78,3.95-4.05,10.98-7.68,14.14-.69.53-2.01,1.12-3.02,1.4-2.6.72-6.4.3-7.54-1.54-.42-.68-.34-1.38-.41-2.04-.21-7.19,9.76-7.46,3.56-17.53-3.58-5.81-11.34-10.45-17.19-15.29-4.18-3.49-7.98-7.19-10.54-11.35-3.87-6.29-3.77-12.44,3.1-17.74,3.04-2.2,7.93-6.05,12.12-7.21,3.32-.92,5.25-1.34,8.01.39.59.4,1.05.62,1.41,1.2.66,1.07-.11,2.29-.7,3.25Z"/><path class="cls-1" d="m60.58,17.82c1.9-.51,3.61-.37,5.49-.51l3.03-.58c4.03-.24,8.47.85,11.6,3.14,3.47,2.56,7.36,7.3,8.55,11.21.58,1.9.65,3.81.33,5.7-1.19,6.6-4.4,13.74-10.21,17.85-1.13.91-2.28,1.34-3.61,2.06-2.44,1.26-4.53,1.95-7.26,2.69-1.07.29-2.25.61-3.29,1.01-.05.26-.44,1.09-.37,1.31,1.5,4.91,3.42,9.94,5.62,14.66.64,1.27,3.19,5.41,3.43,6.2,1.29,4.24-2.53,7.68-6.68,8.81-1.42.38-3.06.47-4.1-.82-1.97-2.25-2.56-6.31-3.41-9.1-.41-1.34-1.02-2.5-1.51-3.7-2.9-6.58-5.37-13.4-8.04-20.04-2-4.89-3.8-9.96-5.81-14.85-1.05-2.61-2.34-5.16-3.4-7.77-1.21-2.69-1.94-5.51-3.03-8.23-.92-2.17-2.22-4.35-2.87-6.47-.99-3.23,2.31-6.3,5.27-7.1,6.64-1.79,7.32,4.66,9.26,9.33,3.62-1.58,7.07-3.72,10.98-4.78Zm-4.33,19.88c1.22,4.02,3.04,7.87,5.1,11.66.96.22,1.95.08,2.9-.18,1.54-.42,3.05-.94,4.59-1.36.35-.09,2.08-1.17,2.52-1.4,3.49-2.03,6.58-4.92,6.19-9.15.03-.73-.17-1.4-.41-2.18-.82-2.68-3.38-5.61-6.09-6.93-3.37-1.38-7.5-.63-10.82.27-6.64,1.79-5.63,3.82-3.97,9.28Z"/><path class="cls-1" d="m119.35,13.53l.07.61c.58.67,1.26,1.21,2.12,1.11,1.59-.19,2.75-1.94,4.44-2.39,3.49-3.02,6.21-9.43,11.1-10.01,2.45-.29,5.43.72,5.75,3.41.32,2.7-3.65,6.89-4.66,9.87-2.17,6.84-5.86,12.37-4.96,19.96.57,4.78,2.67,8.87,8.18,8.22,3.68-.44,12.98-5.18,16.66-5.62,2.57-.3-1.7,2.98-.1,4.9l.04.37c.38,2.19,4.46.9,2.44,1.63-4.17,1.49-15.4,6.36-19.81,6.89-10.53,1.25-16.91-3.33-18.19-14.11-.52-4.41-.19-8.92.28-13.32-.78-.28-1.65-.3-2.38-.21-.74.09-1.7.33-2.27.77-2.84,2.2-4.17,8.82-6.13,12.15-4.06,6.57-9.68,16.8-18.13,17.8-1.96.23-3.56-.69-3.82-2.9-.1-.86.21-1.39.75-2.07,1.31-1.52,2.89-2.83,4.19-4.47,5.47-6.24,10.06-13.61,12.59-21.61-1.24-3.08-2.49-6.28-2.88-9.59-.39-3.31.1-6.47,2.02-9.18,1.82-2.45,5.08-5.32,8.14-5.69,2.69-.32,4.89,1.41,5.19,3.98.38,3.18-.99,6.32-.61,9.51Z"/><path class="cls-1" d="m159.78,49.18c-3.78-3.66-5.01-6.61-4.57-11.89.23-2.7.81-5.25,1.77-7.77C162.18,16.09,173.92,0,190.14,1.36c5.28.44,10.6,3.49,12.51,8.72.41,1.02.38,1.39,1.18,2.2l.35.41c.64.76,1.62,1.28,2.6,1.12.71-.11,8.72-1.07,11.76-2.77,15.51-8.68,28.1,5.3,16.52,7.43-11.68,2.15-1.22-3.32-4.45-2.12-5.42,2.02-13.5,3.35-15.95,4.13-3.7,1.3-9.92,3.25-11.39,7.46-.81,2.28-.99,4.5-2.06,6.88-3.98,9.07-12.3,16.79-22.13,18.94-2.64.52-5.38.66-8.08.44-4.92-.41-7.65-1.76-11.21-5.02Zm25.28-18.18c-3.78-.32-7.19-1.75-10.63-3.32-1.09-.5-2.39-.37-3.31.4-1.99,1.65-2.4,4.37-3.12,7.07-.17.6-.22,1.22-.28,1.83-.35,4.18,1.09,7.64,5.76,8.03,5.9.49,11.4-4.61,15.2-8.63.54-.57.97-1.28,1.04-2.14.03-.3,0-.59-.05-.87-.29-1.43-1.68-2.35-3.14-2.33-.52,0-1.03,0-1.49-.04Zm2.17-19.82c-.7.03-1.36.31-1.89.76-1.45,1.25-2.97,2.42-3.14,4.46-.29,3.5,3.06,4.8,5.86,5.07.1,0,.2.01.31.02h.63c.68.02,1.36-.17,1.89-.59,1.18-.92,1.77-2.17,1.91-3.86v-.11c.06-.62-.07-1.24-.38-1.78-1.01-1.81-2.26-3.78-4.46-3.97-.25-.02-.49-.03-.73-.02Z"/><path class="cls-1" d="m233.29,37.55c-1.22,4.4-2.59,8.88-3.58,13.34-.56,2.92-1.64,6.84,1.42,8.71l.48.13c2.85.79,6.1-4.45,7.52-6.36,4.92-6.18,10.55-22.79,12.58-30.55,1.17-1.47,2.26-3.09,4.42-3,2.24,1.13,5.91,1.77,6.22,4.8-2.72,7.95-14.04,36.29-19.76,41.22-3.67,3.08-8.47,4.69-13.22,3.37-1.66-.46-3.11-1.25-4.52-2.15-8.9-6.18-7.31-14.7-4.77-23.85,2.51-9.03,5.28-18.11,8.27-27.01.88-2.7,1.59-7.11,5.06-7.17,2.43.93,6.36,1.51,7.22,4.44-2.84,7.91-5.08,15.99-7.32,24.07Z"/><path class="cls-1" d="m57.75,112.43c-3.2,1.95-6.92-.61-11.17,3.86-.84.85-1.22,2-1.07,3.31.3,2.62,3.21,7.08,4.59,10.02.44,1.11,1.09,2.26,1.73,3.32,1.91,3.91,3.74,8.05,4.2,11.99.34,2.95-.17,5.7-1.77,7.97-1.69,2.41-5.93,6.15-9.23,7.21-.6.15-1.64.16-2.38.06-1.9-.28-4.24-1.67-4.42-3.23-.07-.58.19-1.02.35-1.48,2.03-4.87,8.57-2.14,7.58-10.67-.57-4.92-4.2-10.29-6.54-15.23-1.66-3.55-3.01-7.13-3.42-10.66-.62-5.33,1.29-9.41,7.34-10.95,2.63-.59,6.96-1.73,10.02-1.28,2.43.35,3.81.64,5.08,2.59.26.44.5.72.56,1.21.1.9-.76,1.5-1.43,1.97Z"/><path class="cls-1" d="m171.42,69.31c5.2,5.37,17.23,23.51,13.72,26.91-3.51,3.4-21.24-9.24-26.44-14.61-5.2-5.37-10.29-16.29-6.78-19.68s14.3,2.01,19.5,7.38Z"/><path class="cls-1" d="m198.98,74.99c-3.29,6.71-16.27,24.19-20.66,22.04-4.39-2.15,1.48-23.11,4.77-29.83,3.29-6.71,11.83-15.21,16.22-13.06,4.39,2.15,2.96,14.14-.33,20.85Z"/><path class="cls-1" d="m64.64,153.8c-3.43-2.8-4.68-5.18-4.69-9.64,0-2.28.3-4.46.92-6.64,3.4-11.63,12.09-25.96,25.79-25.99,4.46,0,9.14,2.16,11.12,6.41.42.83.42,1.14,1.15,1.76l1.25,1.24c3.73-.42,13.49-9.68,16.67-10.62,5.58-1.65-2.98,8.1-2.15,9.35-1.67,2.42-2.96,3.95-6.11,6.13-2.71,1.88-8.09,3.44-9.01,7.07-.51,1.97-.51,3.84-1.23,5.92-2.68,7.89-9.1,14.96-17.19,17.47-2.18.63-4.46.94-6.74.95-4.15,0-6.54-.92-9.76-3.4Zm19.89-17.06c-3.63,0-6.95-1.23-10.38-2.47-3.01,1.35-3.1,4.26-3.62,7.17-.1.52-.1,1.04-.1,1.56,0,3.53,1.47,6.33,5.41,6.32,4.98,0,9.23-4.69,12.12-8.32.41-.52.72-1.14.72-1.87,0-1.14-.73-2.07-1.77-2.59-.83.11-1.66.21-2.39.21Zm-.66-16.5c-1.24,1.35-2.8,2.5-2.79,4.47,0,3.01,3.02,3.83,5.4,3.83l1.45-.11c1.45-.94,2.07-2.18,2.07-3.95,0-.31,0-.62-.11-1.04-1.04-1.55-2.29-3.52-4.37-3.52-.62,0-1.14.11-1.66.31Z"/><path class="cls-1" d="m123.19,116.74c3.52-2.29,7.88-3.75,12.03-3.76,1.87,0,4.46.41,6.02,1.34,3.84,2.48,3.96,8.4,4.59,12.44.95,6.95,2.32,17.95,2.33,24.9,0,.52-.1,2.18-.31,2.59-.93,1.97-3,3.53-5.29,3.54-1.87,0-3.63-.82-4.67-2.48.09-5.19-.57-27.29-2.24-31.12-.63-1.56-1.77-2.49-3.53-2.48-.73,0-1.66.21-2.49.42-5.29,2.09-5.25,23.56-5.24,28.85,0,3.84-2.58,5.4-6.22,5.41-.93,0-2.08-.31-2.8-1.03-1.77-1.97-1.06-13.38-1.07-16.5-.02-7.99-.14-17.85-.88-25.63.62-2.08,3.31-3.22,5.39-3.23,3.63,0,3.74,1.76,3.74,4.77,0,.73.11,1.35.63,1.97Z"/><path class="cls-1" d="m184.57,138.18c0,4.88.12,9.75.24,14.73-3,3.74-6.94,4.06-11.41,4.07-.62,0-1.35.11-1.97,0-4.88-.41-13.7-3.19-16.82-7.13-.73-.93-1.04-1.66-1.35-2.8-1.15-3.01-1.88-5.5-1.89-8.82-.01-6.12,2.67-16.09,6.7-20.77,2.38-2.7,7.46-3.33,10.78-3.34,1.66,0,3.42.1,5.19.51.31-.31,1.35-.94,1.45-1.25.1-.52.4-6.85.4-7.99.4-6.02.91-12.04,1.73-17.95.62-.62,2.49-1.87,3.42-1.87,2.18,0,4.67.82,5.5,3-1.21,16.5-2.01,33-1.98,49.6Zm-20.63,7.93c1.14,1.03,6.44,1.85,8.1,1.85,4.88,0,4.76-4.06,4.76-7.9s-.53-7.88-.44-11.72c-.21-.73-.42-2.18-1.04-2.59-2.49,0-4.98-.82-7.47-.82-1.35,0-3.53.32-4.36,1.46-1.45,2.08-2.16,8.1-2.16,10.59,0,2.7.64,7.26,2.61,9.13Z"/><path class="cls-1" d="m202.31,136.79c-.1,0-.1-.1-.1-.21l-.31.31h-.1s-.1.1-.21.1c1.05,4.56,3.34,9.33,8.11,10.78,2.18.72,4.46.72,6.75,1.13,1.35.2,3.74,1.03,3.74,2.79,0,2.8-6.42,5.41-8.81,5.41-4.36,0-10.9-4.03-14.02-7.03-2.08-2.07-3.54-4.56-4.48-7.36-.84-2.59-1.77-5.5-2.4-8.19-.1-.41-.11-1.04-.11-1.56,0-3.22,1.65-6.12,2.68-9.24.21-.62.31-1.56.51-2.18.52-1.25,1.55-2.49,2.28-3.43,4.35-5.61,10.88-9.05,18.04-9.06,4.25,0,4.36.93,7.89,1.85,2.6,2.8,5.93,6.94,7.08,10.67.21.62.32,3.94.32,4.77,0,1.66-.09,5.08-1.23,6.54-.52.62-.83,1.45-1.45,2.08-1.03,1.14-14.32,1.17-16.39,1.17-2.18,0-4.36-.2-6.54-.19-.1,0-.93.21-1.14.21,0,.21,0,.62-.1.62Zm8.16-18.59c-3.11,2.08-7.05,4.06-7.25,8.31,3.32,1.34,6.96,2.27,10.59,2.26,2.07,0,4.25-.32,6.33-.95v-1.66c0-2.7-1.79-8.92-5.21-8.91-1.56,0-2.9.94-4.46.94Z"/><path class="cls-1" d="m250.8,123.43v.52c.42.62.94,1.14,1.66,1.14,1.35,0,2.49-1.35,3.94-1.56,3.21-2.19,6.11-7.28,10.26-7.28,2.08,0,4.46,1.13,4.47,3.42s-3.72,5.4-4.86,7.79c-2.48,5.5-6.1,9.77-6.09,16.2,0,4.05,1.36,7.68,6.03,7.67,3.11,0,5.91-1.78,9.02-1.78,2.18,0,3.74,1.03,4.88,2.79v.31c.11,1.87-1.34,3.63-3.1,4.05-3.63.84-8.51.36-12.24.37-8.92.02-13.81-3.43-13.82-12.57,0-3.74.71-7.47,1.54-11.11-.62-.31-1.35-.41-1.97-.41s-1.45.11-1.97.42c-2.59,1.56-4.34,6.96-6.31,9.56-4.04,5.09-9.73,13.09-16.89,13.11-1.66,0-2.91-.93-2.91-2.8,0-.73.31-1.14.83-1.66,1.24-1.14,2.69-2.08,3.94-3.33,5.18-4.68,9.73-10.39,12.63-16.83-.73-2.7-1.46-5.5-1.47-8.3s.72-5.4,2.58-7.48c1.76-1.87,4.76-3.95,7.36-3.96,2.28,0,3.95,1.65,3.95,3.83,0,2.7-1.44,5.19-1.44,7.89Z"/><path class="cls-1" d="m99.51,97.93c-.18-1.77-1.89-1.29-3.3-1.29-.97,0-1.94-.12-2.68-.68-2.16-1.45-2.95-5.19-2.95-7.48,0-.56.04-1.13.18-1.69.44-2.13,2.55-3.86,4.93-3.86,1.72,0,2.82.48,4.44.88.18-.76.22-1.53.22-2.33,0-1.33.48-3.1-1.41-3.1-2.55,0-3.83,2.33-5.24,2.33-.7,0-1.41-1.21-1.41-1.85,0-2.17,4.84-3.9,6.82-3.9,1.76,0,3.65.8,4.22,2.41.7,1.89.84,4.66.84,6.63,0,4.22-.88,8.36-.97,12.58-.04.6-.7,1.93-1.45,2.05-.18.04-.44.04-.66.04-.62,0-1.5-.08-1.58-.76Zm-5.1-8.84c0,.84.18,2.53.57,3.3.22.48,1.1.6,1.58.68.62.08,1.45.24,2.07.24,1.72,0,1.41-4.82,1.58-5.95-.57,0-2.55-.92-4-.92-1.67,0-1.8,1.45-1.8,2.65Z"/><path class="cls-1" d="m110.47,79.96c1.5-.97,3.34-1.58,5.1-1.58.79,0,1.89.18,2.55.57,1.63,1.06,1.67,3.56,1.94,5.28.4,2.95.97,7.61.97,10.56,0,.22-.04.92-.13,1.1-.4.84-1.28,1.5-2.24,1.5-.79,0-1.54-.35-1.98-1.06.04-2.2-.22-11.57-.92-13.2-.26-.66-.75-1.06-1.5-1.06-.31,0-.7.09-1.06.18-2.24.88-2.24,9.99-2.24,12.23,0,1.63-1.1,2.29-2.64,2.29-.4,0-.88-.13-1.19-.44-.75-.84-.44-5.68-.44-7,0-3.39-.04-7.57-.35-10.87.26-.88,1.41-1.36,2.29-1.36,1.54,0,1.58.75,1.58,2.02,0,.31.04.57.26.84Z"/><path class="cls-1" d="m136.75,89.22c0,2.07.04,4.14.09,6.25-1.28,1.58-2.95,1.72-4.84,1.72-.26,0-.57.04-.84,0-2.07-.18-5.81-1.36-7.13-3.04-.31-.4-.44-.7-.57-1.19-.48-1.28-.79-2.33-.79-3.74,0-2.6,1.14-6.82,2.86-8.8,1.01-1.14,3.17-1.41,4.58-1.41.7,0,1.45.04,2.2.22.13-.13.57-.4.62-.53.04-.22.18-2.9.18-3.39.18-2.55.4-5.1.75-7.61.26-.26,1.06-.79,1.45-.79.92,0,1.98.35,2.33,1.28-.53,7-.88,13.99-.88,21.04Zm-8.76,3.34c.48.44,2.73.79,3.43.79,2.07,0,2.02-1.72,2.02-3.34s-.22-3.34-.18-4.97c-.09-.31-.18-.92-.44-1.1-1.06,0-2.11-.35-3.17-.35-.57,0-1.5.13-1.85.62-.62.88-.92,3.43-.92,4.49,0,1.14.26,3.08,1.1,3.87Z"/><path class="cls-1" d="m297.37,32.31c-.21.74-1.9,4.43-1.5,5.06.48.75,2.83,1.1,3.58,1.58,2.26,1.44,4.9,1.73,7.17,3.16.76.48.62.39.86.66,1.4,1.54,1.84,3.83,1,5.76,0,.01-.01.02-.02.03-.86,1.98-2.11,3.84-4.03,4.21-.31.06-.63,0-.92-.13-3.22-1.4-6.62-2.75-9.78-4.53-.98-.55-2.14-.07-2.65,1.08,0,0,0,.01,0,.02-.21.47-1.83,5.05-1.98,5.11-2.96,7.34-7.28,19.22-10,26.6-.02.05-.04.11-.07.16-5.05,11.02,9.43-1.77,13.42.65,2.99,1.82.35,7-.69,8.16-.26.29,0,0-.61.68-3.81,4.25-27.75,11.84-26.59-4.86.28-4.09,7.95-21.32,9.35-24.52,2.44-5.88,4.89-12.05,6.85-18.24-.34-.37-.64-.56-1.03-.81-2.24-1.43-4.75-2.27-7.05-3.57-.03-.02-.07-.04-.11-.06-2.06-.99-4.31-1.53-6.36-2.84-.98-.62-2.2-1.85-2.68-3.07-.48-1.21.09-4.8.55-5.86.99-2.25,2.13-2.19,4.55-1.41,3.76,1.17,7.67,2.72,11.11,4.9,1.05.67,2.92,1.54,4.12,1.82.76.17,1.99-3.65,2.45-4.4,1.93-3.12,2.96-8.96,6.98-7.07,1.23.63,2.77,1.15,4.04,1.96,3.35,2.12,2,4.91.71,7.88-.26.59-.49,1.24-.68,1.88Z"/></g></svg>