<?xml version="1.0" encoding="UTF-8"?><svg id="Layer_2" xmlns="http://www.w3.org/2000/svg" viewBox="0 0 452.15 78.65"><defs><style>.cls-1{fill:#90905a;stroke-width:0px;}</style></defs><g id="Layer_1-2"><path class="cls-1" d="m37.86,28.65c1.28,0,2.32.4,3.53.64l2,.16c2.56.56,5.13,2.08,6.65,4.17,1.68,2.32,3.21,6.17,3.21,8.97,0,1.36-.32,2.64-.88,3.85-2,4.17-5.37,8.33-9.78,10.02-.88.4-1.68.48-2.64.72-1.76.4-3.21.48-5.05.48-.72,0-1.52,0-2.24.08-.08.16-.48.64-.48.8,0,3.53.24,7.21.72,10.74.16.96.96,4.17.96,4.73,0,3.04-3.04,4.65-5.85,4.65-.96,0-2-.24-2.4-1.28-.8-1.84-.4-4.65-.4-6.65,0-.96-.16-1.84-.24-2.72-.56-4.89-.8-9.85-1.2-14.74-.32-3.61-.48-7.29-.8-10.9-.16-1.92-.48-3.85-.64-5.77-.24-2-.16-4.01-.32-6.01-.16-1.6-.56-3.28-.56-4.81,0-2.32,2.64-3.77,4.65-3.77,4.49,0,3.69,4.41,4.01,7.85,2.56-.4,5.13-1.2,7.77-1.2Zm-6.49,12.42c0,2.88.4,5.77.96,8.65.56.32,1.2.4,1.84.4,1.04,0,2.08-.08,3.12-.08.24,0,1.52-.4,1.84-.48,2.56-.72,5.05-2.08,5.61-4.97.16-.48.16-.96.16-1.52,0-1.92-1.04-4.33-2.48-5.69-1.84-1.52-4.57-1.76-6.81-1.76-4.49,0-4.25,1.52-4.25,5.45Z"/><path class="cls-1" d="m135.22,46.21c.26,2.95.46,5.99.88,8.93.33,1.9.57,4.53,2.86,4.97l.32-.03c1.92-.17,2.69-4.1,3.12-5.59,1.57-4.89,1.2-16.28.65-21.46.38-1.16.67-2.39,2-2.83,1.62.18,4-.28,4.88,1.49.17,5.46-.23,25.28-2.58,29.59-1.53,2.71-4.07,4.79-7.27,5.08-1.12.1-2.18-.05-3.24-.27-6.83-1.72-7.81-7.26-8.36-13.41-.54-6.07-.94-12.22-1.16-18.32-.08-1.84-.66-4.69,1.44-5.52,1.69,0,4.22-.54,5.4,1.04.09,5.46.57,10.89,1.06,16.32Z"/><path class="cls-1" d="m330.16,33.22c2.72-1.76,6.09-2.88,9.29-2.88,1.44,0,3.45.32,4.65,1.04,2.96,1.92,3.04,6.49,3.53,9.62.72,5.37,1.76,13.86,1.76,19.23,0,.4-.08,1.68-.24,2-.72,1.52-2.32,2.72-4.09,2.72-1.44,0-2.8-.64-3.61-1.92.08-4.01-.4-21.07-1.68-24.04-.48-1.2-1.36-1.92-2.72-1.92-.56,0-1.28.16-1.92.32-4.09,1.6-4.09,18.19-4.09,22.27,0,2.96-2,4.17-4.81,4.17-.72,0-1.6-.24-2.16-.8-1.36-1.52-.8-10.34-.8-12.74,0-6.17-.08-13.78-.64-19.79.48-1.6,2.56-2.48,4.17-2.48,2.8,0,2.88,1.36,2.88,3.69,0,.56.08,1.04.48,1.52Z"/><path class="cls-1" d="m378.84,50.73c0,3.77.08,7.53.16,11.38-2.32,2.88-5.37,3.12-8.81,3.12-.48,0-1.04.08-1.52,0-3.77-.32-10.58-2.48-12.98-5.53-.56-.72-.8-1.28-1.04-2.16-.88-2.32-1.44-4.25-1.44-6.81,0-4.73,2.08-12.42,5.21-16.02,1.84-2.08,5.77-2.56,8.33-2.56,1.28,0,2.64.08,4.01.4.24-.24,1.04-.72,1.12-.96.08-.4.32-5.29.32-6.17.32-4.65.72-9.29,1.36-13.86.48-.48,1.92-1.44,2.64-1.44,1.68,0,3.61.64,4.25,2.32-.96,12.74-1.6,25.48-1.6,38.3Zm-15.94,6.09c.88.8,4.97,1.44,6.25,1.44,3.77,0,3.69-3.12,3.69-6.09s-.4-6.09-.32-9.05c-.16-.56-.32-1.68-.8-2-1.92,0-3.85-.64-5.77-.64-1.04,0-2.72.24-3.37,1.12-1.12,1.6-1.68,6.25-1.68,8.17,0,2.08.48,5.61,2,7.05Z"/><path class="cls-1" d="m391.54,49.69c-.08,0-.08-.08-.08-.16l-.24.24h-.08s-.08.08-.16.08c.8,3.53,2.56,7.21,6.25,8.33,1.68.56,3.45.56,5.21.88,1.04.16,2.88.8,2.88,2.16,0,2.16-4.97,4.17-6.81,4.17-3.37,0-8.41-3.12-10.82-5.45-1.6-1.6-2.72-3.53-3.45-5.69-.64-2-1.36-4.25-1.84-6.33-.08-.32-.08-.8-.08-1.2,0-2.48,1.28-4.73,2.08-7.13.16-.48.24-1.2.4-1.68.4-.96,1.2-1.92,1.76-2.64,3.37-4.33,8.41-6.97,13.94-6.97,3.29,0,3.37.72,6.09,1.44,2,2.16,4.57,5.37,5.45,8.25.16.48.24,3.04.24,3.69,0,1.28-.08,3.93-.96,5.05-.4.48-.64,1.12-1.12,1.6-.8.88-11.06.88-12.66.88-1.68,0-3.37-.16-5.05-.16-.08,0-.72.16-.88.16,0,.16,0,.48-.08.48Zm6.33-14.34c-2.4,1.6-5.45,3.12-5.61,6.41,2.56,1.04,5.37,1.76,8.17,1.76,1.6,0,3.29-.24,4.89-.72v-1.28c0-2.08-1.36-6.89-4.01-6.89-1.2,0-2.24.72-3.45.72Z"/><path class="cls-1" d="m429.56,39.27v.4c.32.48.72.88,1.28.88,1.04,0,1.92-1.04,3.04-1.2,2.48-1.68,4.73-5.61,7.93-5.61,1.6,0,3.45.88,3.45,2.64s-2.88,4.17-3.77,6.01c-1.92,4.25-4.73,7.53-4.73,12.5,0,3.12,1.04,5.93,4.65,5.93,2.4,0,4.57-1.36,6.97-1.36,1.68,0,2.88.8,3.77,2.16v.24c.08,1.44-1.04,2.8-2.4,3.12-2.8.64-6.57,1.04-9.46,1.04-6.89,0-10.66-3.45-10.66-10.5,0-2.88.56-5.77,1.2-8.57-.48-.24-1.04-.32-1.52-.32s-1.12.08-1.52.32c-2,1.2-3.37,5.37-4.89,7.37-3.12,3.93-7.53,10.1-13.06,10.1-1.28,0-2.24-.72-2.24-2.16,0-.56.24-.88.64-1.28.96-.88,2.08-1.6,3.04-2.56,4.01-3.61,7.53-8.01,9.78-12.98-.56-2.08-1.12-4.25-1.12-6.41s.56-4.17,2-5.77c1.36-1.44,3.69-3.04,5.69-3.04,1.76,0,3.04,1.28,3.04,2.96,0,2.08-1.12,4.01-1.12,6.09Z"/><path class="cls-1" d="m95.97,60.06c-2.61-1.66-3.68-3.21-4.05-6.3-.19-1.58-.16-3.12.09-4.69,1.4-8.35,6.24-19.03,15.75-20.18,3.1-.37,6.52.74,8.25,3.53.36.54.38.76.94,1.13l.25.19c.46.36,1.08.54,1.63.34.39-.15,4.89-1.66,6.44-3,7.9-6.85,12.21.03,5.79,2.64-6.47,2.63,3.51-2.1,1.79-1.01-2.88,1.81-7.38,3.54-8.7,4.28-1.98,1.19-5.33,3.06-5.67,5.66-.19,1.41-.04,2.71-.37,4.21-1.21,5.7-5.08,11.14-10.49,13.55-1.46.61-3.02,1.02-4.6,1.22-2.88.35-4.62-.1-7.06-1.56Zm12.4-13.49c-2.22.27-4.35-.15-6.52-.65-.69-.16-1.42.07-1.86.62-.95,1.19-.86,2.81-.95,4.44-.03.37.02.73.06,1.09.3,2.45,1.54,4.27,4.28,3.94,3.46-.42,6.02-4.02,7.73-6.78.24-.39.41-.85.35-1.36-.02-.18-.07-.34-.13-.5-.34-.79-1.25-1.16-2.09-.97-.3.07-.59.12-.86.16Zm-1.11-11.68c-.4.1-.75.34-1,.67-.69.89-1.42,1.75-1.28,2.95.25,2.05,2.33,2.4,3.98,2.22.06,0,.12-.02.18-.03l.36-.07c.39-.08.76-.26,1.02-.57.57-.67.76-1.46.64-2.45v-.06c-.05-.36-.2-.7-.44-.98-.8-.92-1.76-1.91-3.04-1.75-.15.02-.29.04-.42.08Z"/><path class="cls-1" d="m70.83,36.21l.05.42c.39.46.85.82,1.43.75,1.08-.13,1.86-1.31,3.01-1.62,2.36-2.05,4.2-6.39,7.52-6.78,1.66-.2,3.68.49,3.89,2.31.22,1.83-2.47,4.67-3.16,6.68-1.47,4.63-3.97,8.38-3.36,13.52.38,3.24,1.81,6.01,5.54,5.57,2.49-.3,8.79-3.51,11.28-3.81,1.74-.21-1.15,2.02-.07,3.32l.03.25c.26,1.48,3.02.61,1.65,1.11-2.82,1.01-10.43,4.31-13.42,4.67-7.13.85-11.46-2.26-12.32-9.56-.35-2.99-.13-6.04.19-9.02-.53-.19-1.12-.2-1.62-.14-.5.06-1.15.22-1.54.52-1.93,1.49-2.82,5.97-4.15,8.23-2.75,4.45-6.56,11.38-12.28,12.06-1.33.16-2.41-.47-2.59-1.96-.07-.58.14-.94.51-1.41.89-1.03,1.96-1.91,2.84-3.03,3.71-4.23,6.81-9.22,8.52-14.64-.84-2.09-1.68-4.26-1.95-6.5-.27-2.24.07-4.38,1.37-6.22,1.23-1.66,3.44-3.61,5.51-3.85,1.82-.22,3.31.95,3.52,2.7.25,2.16-.67,4.28-.41,6.44Z"/><path class="cls-1" d="m19.83,26.76c-2.94,1.85-6.31-.49-10.24,3.7-.77.8-1.13,1.87-1.01,3.09.25,2.44,2.86,6.56,4.09,9.28.39,1.03.97,2.09,1.55,3.07,1.7,3.62,3.33,7.45,3.71,11.11.28,2.75-.21,5.31-1.7,7.44-1.57,2.26-5.47,5.79-8.5,6.8-.55.15-1.5.17-2.17.08-1.73-.24-3.85-1.51-4-2.96-.06-.53.18-.95.33-1.38,1.9-4.55,7.85-2.08,7.03-10.01-.47-4.58-3.73-9.54-5.82-14.11-1.48-3.29-2.67-6.61-3.01-9.89-.51-4.96,1.28-8.77,6.81-10.27,2.41-.57,6.37-1.68,9.16-1.3,2.21.3,3.47.55,4.61,2.36.23.41.45.66.5,1.12.09.84-.71,1.41-1.33,1.85Zm256.57.15c-2.94,1.85-6.31-.49-10.24,3.7-.77.8-1.13,1.87-1.01,3.09.25,2.44,2.86,6.56,4.09,9.28.39,1.03.97,2.09,1.55,3.07,1.7,3.62,3.33,7.45,3.71,11.11.28,2.75-.21,5.31-1.7,7.44-1.57,2.26-5.47,5.79-8.5,6.8-.55.15-1.5.17-2.17.08-1.73-.24-3.85-1.51-4-2.96-.06-.53.18-.95.33-1.38,1.9-4.55,7.85-2.08,7.03-10.01-.47-4.58-3.73-9.54-5.82-14.11-1.48-3.29-2.67-6.61-3.01-9.89-.51-4.96,1.28-8.77,6.81-10.27,2.41-.57,6.37-1.68,9.16-1.3,2.21.3,3.47.55,4.61,2.36.23.41.45.66.5,1.12.09.84-.71,1.41-1.33,1.85Z"/><path class="cls-1" d="m281.99,65.25c-2.88-2.34-3.92-4.34-3.93-8.09,0-1.91.25-3.74.77-5.57,2.85-9.75,10.14-21.77,21.62-21.8,3.74,0,7.66,1.81,9.32,5.38.35.7.35.96.96,1.48l1.05,1.04c3.13-.35,11.31-8.12,13.98-8.91,4.68-1.38-2.5,6.8-1.8,7.84-1.4,2.03-2.48,3.31-5.12,5.14-2.27,1.58-6.78,2.88-7.56,5.93-.43,1.65-.43,3.22-1.03,4.96-2.25,6.62-7.63,12.55-14.42,14.65-1.83.53-3.74.79-5.65.79-3.48,0-5.48-.77-8.19-2.86Zm16.68-14.3c-3.05,0-5.83-1.03-8.71-2.07-2.52,1.14-2.6,3.57-3.03,6.01-.09.44-.09.87-.08,1.31,0,2.96,1.23,5.31,4.54,5.3,4.18,0,7.74-3.93,10.17-6.98.35-.44.61-.96.61-1.57,0-.96-.61-1.74-1.48-2.17-.7.09-1.39.18-2,.18Zm-.55-13.83c-1.04,1.13-2.34,2.09-2.34,3.75,0,2.52,2.53,3.21,4.53,3.21l1.22-.09c1.22-.79,1.74-1.83,1.73-3.31,0-.26,0-.52-.09-.87-.87-1.3-1.92-2.96-3.66-2.95-.52,0-.96.09-1.39.26Z"/><path class="cls-1" d="m211.8,14.37c5.08,5.69,16.32,24.35,12.26,27.29-4.06,2.94-21.89-10.96-26.96-16.65-5.08-5.69-9.55-16.71-5.49-19.65,4.06-2.94,15.11,3.32,20.19,9.01Z"/><path class="cls-1" d="m243.59,20.53c-3.53,6.5-17.47,23.44-22.18,21.36s1.59-22.4,5.13-28.91c3.53-6.5,12.7-14.74,17.41-12.66,4.71,2.08,3.18,13.7-.36,20.2Z"/><path class="cls-1" d="m219.38,38.31c.78,9.09,2.29,18.11,4.56,26.95.8,3.11,5.62,1.79,4.82-1.33-2.15-8.41-3.64-16.97-4.38-25.62-.12-1.35-1.07-2.5-2.5-2.5-1.26,0-2.62,1.15-2.5,2.5h0Z"/><path class="cls-1" d="m173.88,27.2c.07.51,0,3.21.42,3.48.5.33,2.04-.09,2.63,0,1.78.26,3.49-.27,5.27,0,.59.09.49.07.71.17,1.27.56,2.15,1.83,2.15,3.23,0,0,0,.02,0,.03,0,1.44-.28,2.91-1.37,3.65-.17.12-.39.16-.6.17-2.36.01-4.82.11-7.24-.12-.75-.07-1.34.54-1.35,1.37,0,0,0,.01,0,.02,0,.34.21,3.57.14,3.64.13,5.26.62,13.66.91,18.88,0,.04,0,.08,0,.12-.18,8.07,5.35-3.62,8.46-3.23,2.33.3,2.08,4.17,1.74,5.15-.08.25,0,0-.2.58-1.22,3.62-13.97,14.7-17.71,4.23-.91-2.56-.77-15.12-.76-17.44-.06-4.23-.19-8.65-.63-12.95-.31-.13-.54-.17-.85-.21-1.76-.26-3.53-.1-5.3-.27-.03,0-.05,0-.08,0-1.53-.05-3.07.23-4.68,0-.77-.11-1.85-.53-2.47-1.14-.62-.61-1.22-2.94-1.22-3.72,0-1.64.73-1.91,2.44-2.09,2.63-.3,5.46-.42,8.16-.02.83.12,2.21.15,3.03,0,.52-.1.26-2.76.34-3.34.36-2.42-.56-6.25,2.43-6.19.93.05,2.01-.05,3.02.1,2.63.39,2.54,2.45,2.53,4.6,0,.43.02.89.08,1.33Z"/></g></svg>